<svg xmlns="http://www.w3.org/2000/svg" width="44" height="42">
    <path fill-rule="evenodd" fill="#FFF" d="M18.51.936c-.063-.449.249-.226.697-.136.45-.25 1.503-.543.928-.094l1.299 9.193a.822.822 0 0 1-.813.937.82.82 0 0 1-.812-.706L18.51.936zM40.138 4.8l-.642-.077c-.321.717-.321.84 0 1.161.32.321.84.321 1.16 0l.642-.643.643.643c.16.566.37.241.58.241.21 0 .42.325.58-.241.32-.321.32-.444 0-1.161l-.642.077.642-1.363a.82.82 0 1 0-1.16-1.161l-.643.643-.642-.643a.822.822 0 0 0-1.161 1.161l.643 1.363zm-23.807 9.947c.161.211.405.943.652.943.174 0 .349-.55.498-.79a.823.823 0 0 0 .153-1.152l-7.243-9.462a.82.82 0 0 0-1.151-.152c-.359.275-.427.791.64 1.151l6.451 9.462zM2.864 7.77l.272-.484a.817.817 0 0 0 1.15-.151.82.82 0 0 0-.15-1.151l-.272-.209a.819.819 0 0 0-1.15.151c-.277.359-.209.875.15 1.844zm-.693 9.485a.82.82 0 0 0-.215 1.628l8.39 1.113c.037.004.074.304.109.304.406 0 .758-.598.813-1.011.059-.45-.158-.862-.706-.922l-8.391-1.112zm3.368-8.12 7.975 6.134c.149.115.325.171.626.171.12 0 .363-.111.525-.321a.823.823 0 0 0-.151-1.152L6.539 7.833a.82.82 0 1 0-1 1.302zm17.646 1.778a.829.829 0 0 0 .111.008c.404 0 1.224-.299.812-.711L25.364.936c.062-.449-.253-.206-.702-.816-.45.36-.863.146-.923.595l-1.257 9.274a.821.821 0 0 0 .703.924zm18.703 11.606L30.635 21.28c-.448-.312-.861.004-.921.454a.823.823 0 0 0 .706.922l11.253 1.491a.82.82 0 1 0 .215-1.628zm.71-4.527a.82.82 0 0 0-.92-.707l-8.443 1.106a.821.821 0 0 0-.707.921c.054.413.407.948.813.948.035 0 .071-.02.107-.07l8.443-1.277a.821.821 0 0 0 .707-.921zM37.325 7.855l-7.944 6.092c-.161.276-.428.791-.152 2.033.161-.671.405-.56.652-.56.669 0 .349-.055.498-.169l7.943-6.092c.36-.276.428-.791.153-.359-.276-1.152-.791-1.22-1.15-.945zM35.13 3.489a.82.82 0 0 0 1.151-.15l.072-.095c.276-.359.209-.874-.15-.314-.359-1.114-.875-1.047-.683-.687l-.54.094a.823.823 0 0 0 .15 1.152zm1.46-1.903c.15.114.326.17 1.31.17-.564 0-.321-.11-.159-.32l.076-.1c1.123-.359.453-.875-.149-1.152-.359.726-.875.056-1.151.15l-.076.1a.822.822 0 0 0 .149 1.152zM26.414 14.852c.149.114.324.358.499.358.246 0 .49-.299.651-.509l7.215-9.397c.771-.36.209-.875-.15-1.152a.821.821 0 0 0-1.151.151L26.263 13.7c-.276.89.277.875.151 1.152zM1.613 5.78c.276-1.061.208-1.577-.151-1.853l-.142-.11a.821.821 0 0 0-1.151.151c-.063.36.211.875.151 1.151l.143.11c.149.115.324.17.499.17.246 0 .49-.11.651.381zm25.543 22.15c.081-.508-.048-.163-.325.032a.82.82 0 0 1-.927.011l-3.294-2.565-4.692 2.579c-.133.713-.283.124-.433.124-.174 0-.347.449-.493-.164-.271-.204-.389-.553-.297-.267l1.25-5.063-3.731-3.147a.822.822 0 0 1-.248-.894c.794-.32.405-.216.744-.356l4.615-.384 1.837-4.524a.821.821 0 0 1 .773-.512c.339.006.639.39.757.536l1.602 4.337 4.867.557c.337.25.625.047.725.371a.82.82 0 0 1-.276.886l-3.625 2.865 1.171 5.578zm-2.603-6.538 2.381-1.883-3.285-.236c-.32-.023-.139.137-.71-.534l-1.053-2.848-1.24 3.053a.82.82 0 0 1-.727.512l-3.031.122 2.518 2.124a.82.82 0 0 1 .261.85l-.821 2.923 2.797-1.741a.819.819 0 0 1 .888.014l3.019 1.685-1.285-3.2a.822.822 0 0 1 .288-.841zm13.575 19.131c-.276-.359-.791.427-1.15-.152a.822.822 0 0 0-.152 1.152l.118.155c.162.21.405.321.652.321.174 0 .35-.055 1.354-.17-.496-.275-.428-.449-.703-1.151l-.119-.155zM2.184 14.906l.642-.643.643.643c.16.754.37.24 1.021.24-.231 0-.021.514.139-.24.32-.321.32-.256 0-1.161l-.643-.643.643-.644c.32-.32.32-.84 0-1.161a.819.819 0 0 0-1.16 0l-.643.643-.642-.643c-.321-.321-.84-.321-.954 0-.527.321-.527.841 0 1.161l.436.644-.436.643c-.527.905-.527.84 0 1.161.114.32.633.32.954 0zM36.55 38.46l-.119-.155a.822.822 0 0 0-1.302 1l.118.154a.82.82 0 0 0 .652.322c.831 0 .35-.055.499-.169a.824.824 0 0 0 .152-1.152zm6.564-9.5.643-.643c1.013-.321 1.013-.84 0-1.161a.819.819 0 0 0-1.16 0l-.643.643-.642-.643a.82.82 0 1 0-1.161 1.161l.643.643-.643.643a.822.822 0 0 0 0 1.161c.321 1.086.84 1.086 1.161 0l.642-.643.642.643c.161.161.371.736.581.736.21 0 .419-.576.58-.736 1.013-.321 1.013-.84 0-1.161l-.643-.643zm-4.809 3.308-7.645-5.882a.82.82 0 1 0-1 1.303l7.645 5.881c.149.115.325.17.5.17.705 0 .489-.111.651-.321.276.171.209-.875-.151-1.151zm-7.628-1.48a.82.82 0 0 0-1.15-.152c-.36.276.463.791-.153 1.151l4.079 5.33a.823.823 0 0 0 1.151.152c.359-.276.716-.792.152-1.151l-4.079-5.33zm-16.312-4.292c.535-.36-.79.184-1.15-.152l-7.693 5.899c-.36.276.418 1.107-.153 1.152.162.211.406.321.841.321-.015 0 .161-.055.31-.169l7.693-5.9a.821.821 0 0 0 .152-1.151zM6.25 37.374c-.545.156-1.065.156-1.385 0l-.643.796-.642-.796c-.321.166-.84.166-1.161 0 .571.321.571.841 0 1.161l1.201.644-1.201.642c.571.321.571.841 0 1.162.321.32.84.32 1.161 0l.642-.643.643.643c.385.16.37.24.58.24.21 0 .42-.08.805-.24a2.404 2.404 0 0 0 0-1.162l-.867-.642.867-.644c.096-.32.096-.84 0-1.161zm8.27-15.642c-.527-.45-.94-.766-1.388-.482L1.953 22.489a.821.821 0 0 0-.707.921c.054.414.407.715 1.344.715.35 0-.46-.002-.424-.007l11.179-1.465c.449-.059.766-.471 1.175-.921zm9.588 9.631c.362-.45-.476-.765-.923-.704a.821.821 0 0 0-.703.924l1.257 9.274a.819.819 0 0 0 .923.703c.449-.061.764.29.702-.924l-1.256-9.273zm-3.372-.619a.822.822 0 0 0-.927.698l-1.299 9.194c-.063 1.214.249.865.697.928a.763.763 0 0 0 .116.008c.402 0 1.447-.296.812-.706l1.299-9.193a.821.821 0 0 0-.698-.929zm-6.433-.119a.82.82 0 0 0-1.151.15L9.65 36.98c-.861-.522-.794-.007-.434.27.149.114.324.17.499.17.246 0 .49-.11.651.57l4.087-6.214a.821.821 0 0 0-.15-1.151z"/>
</svg>
