<svg xmlns="http://www.w3.org/2000/svg" width="44" height="31">
    <path fill-rule="evenodd" fill="#FFF" d="M42.5 24.43c-.157 0-.315-.051.04-.157-.785.027-.828-.679-.582-.974a2.746 2.746 0 0 0 .637-1.756c0-.785-.341-.943-.936-2.062a.687.687 0 0 1-.234-.515v-1.804c0-2.798-2.31-4.282-5.149-4.282s-5.149 1.484-5.149 4.282v1.804a.697.697 0 0 1-.702.692c-.055 0-.702-.31-.702-.692v-1.804c0-3.561 2.94-6.458 6.553-6.458s6.553 2.897 6.553 6.458v1.511a4.127 4.127 0 0 1 1.17 2.87c0 .959-.339 1.895-.569 2.635-.526.166-.727.252-.93.252zM30.34 11.361c-.099.953-.02 1.952-.899 2.755-.551.748-.681 1.239-2.291 1.383a3.513 3.513 0 0 1-2.876-.828c-.707.266-1.474 1.169-2.275 1.169-.801 0-1.567-.903-2.274-1.169a3.505 3.505 0 0 1-.263.21c-1.566 1.319-3.766.778-4.904-.765a3.413 3.413 0 0 1-.593-2.755 3.426 3.426 0 0 1 0-5.145 3.413 3.413 0 0 1 .593-2.755c.592-.802 1.942-1.306 2.782-.921.095-1.377.86-2.065 1.817-2.371.958-.032 1.986.071 2.843.295.856-.224 1.884-.327 2.842-.295.957.306 1.722.994 2.123 2.371.984-.385 1.884.119 2.476.921.879.803.8 1.802.899 2.755.43.652.857 1.581.857 2.573s-.427 1.921-.857 2.572zm-8.341 2.34c2.636 0 4.8-2.026 4.974-4.58a6.486 6.486 0 0 1-2.13.36c-2.663 0-5.277-1.835-6.098-3.781-1.085.293-1.605 1.649-1.605 3.089 0 2.708 2.111 4.912 4.859 4.912zm6.842-6.171c-.274-.655-.387-.997-.271-1.299a2.048 2.048 0 0 0-.265-1.956 2.118 2.118 0 0 0-1.806-.853.7.7 0 0 1-.71-.509c-.189-.678.051-1.212-1.381-1.428a2.126 2.126 0 0 0-1.97.356c-.256.589-.621.589-.877 0-.161-.44-1.293-.573-1.97-.356a2.084 2.084 0 0 0-1.381 1.428.7.7 0 0 1-.71.509 2.114 2.114 0 0 0-1.806.853 2.046 2.046 0 0 0-.265 1.955c.116.303.003.645-.271 1.3-.596-.091-.952 1.35-.952 1.258 0 .701.356 1.35.952 1.736.274.178.387.916.271.823-.252 1.053-.153 1.388.265 1.956a2.127 2.127 0 0 0 2.639.637c-1.645-1.14-2.723-3.023-2.723-5.152 0-2.263 1.244-4.364 3.247-5.481.753-.113.451-.12.66-.016a.687.687 0 0 1 .382.529c.32 2.438 2.445 5.15 4.944 5.15.859 0 1.706-1.092 2.449-1.506a.71.71 0 0 1 .66-.017.69.69 0 0 1 .382.531c.037.276.055.549.055.811 0 2.128-1.078 4.011-2.724 5.152.875.191.827.26 1.265.192.556.327 1.044-.382 1.375-.83.418-.567.517-.803.265-1.956-.116.093-.004-.645.271-.823a2.064 2.064 0 0 0 .952-1.735c0 .091-.356-1.35-.952-1.259zM14.276 19.72c0-.266-.314.044-.702.044-.388 0-.702-.31-.702-.044v-2.558c0-2.798-2.31-4.282-5.149-4.282s-5.149 1.484-5.149 4.282v5.367a.697.697 0 0 1-.702.692.697.697 0 0 1-.702-.692v-5.367c0-3.561 2.939-6.458 6.553-6.458 3.613 0 6.553 2.897 6.553 6.458v2.558zm-6.553 1.593c-2.323 0-4.213-1.862-4.213-4.151 0-1.493.82-2.878 2.141-3.614a.71.71 0 0 1 .66-.017c.209.103.352.302.382 1.079.18.824 2.007 1.86 2.785 1.86.484 0 .961-.123 1.38-.357.752-.113.451-.119.66.857.209-.77.352-.571.382-.343.024.182.036.362.036.535 0 2.289-1.476 4.151-4.213 4.151zm1.755-3.459a4.228 4.228 0 0 1-3.87-2.511 2.746 2.746 0 0 0-.694 1.819c0 1.526 1.26 2.767 2.809 2.767 1.987 0 2.478-.941 2.747-2.192a4.285 4.285 0 0 1-.992.117zm-1.755 4.843c.675 0 1.987.087 2.001.259 1.266.594.597.478.497.848a.703.703 0 0 1-.86.489c-.534-.141-1.086.507-1.638.507-3.485 0-6.319 2.074-6.319 5.507 0 .382.486.692-.702.692A.697.697 0 0 1 0 30.307c0-4.196 3.464-7.61 7.723-7.61zm6.947-1.355c1.52-1.827 4.296-2.935 7.329-2.935 3.331 0 5.809 1.108 7.933 2.935.035.025.067.053.368.086 2.211 2.181 4.46 5.353 4.46 8.879 0 .382-.998.692-1.386.692a.697.697 0 0 1-.702-.692c0-2.924-1.219-5.574-3.181-7.482a12.178 12.178 0 0 1-7.492 2.57c-2.727 0-5.362-.909-7.491-2.57-1.962 1.908-3.181 4.558-3.181 7.482 0 .382-.197.692-.702.692a.697.697 0 0 1-.702-.692c0-3.526 1.565-6.699 4.046-8.88.031-.031.351-.06.701-.085zm7.329 2.768c2.32 0 4.565-.843 6.407-2.208a10.716 10.716 0 0 0-6.407-2.111c-2.402 0-4.621.786-6.406 2.111 1.842 1.365 4.087 2.208 6.406 2.208zm10.631-6.948c0-.348-.521-.697-.432-1.038a.701.701 0 0 1 .68-.519h6.796c.32 0 .6.214.68.519.089.341.135.69.135 1.038 0 2.289-1.89 4.151-4.213 4.151-2.323 0-3.646-1.862-3.646-4.151zm7.22 0c0-.058-.02.308-.06-.173h-6.317c-.003.481-.005.115-.005.173 0 1.526 1.259 2.767 2.808 2.767s3.574-1.241 3.574-2.767zm-5.575 5.794a7.858 7.858 0 0 1 2.001-.259c4.259 0 7.723 3.414 7.723 7.61a.697.697 0 0 1-.702.692.697.697 0 0 1-.702-.692c0-3.433-2.835-5.507-6.319-5.507-.552 0-1.104-.648-1.638-.507a.703.703 0 0 1-.86-.489c-.101-.37.122-.254.497-.848z"/>
</svg>
