<svg xmlns="http://www.w3.org/2000/svg" width="23" height="44">
    <path fill-rule="evenodd" fill="#FFF" d="M22.577 43.961a.635.635 0 0 1-.707-.199l-5.188-6.433c-.36 1.083-1.37 1.848-2.53 1.848h-2.016v4.177a.641.641 0 0 1-.637.645.64.64 0 0 1-.636-.645v-4.177H8.847c-1.16 0-2.17-.765-2.53-1.848l-5.188 6.433c.371.153-.306.237-.493.237A.643.643 0 0 1 0 43.354V36.3c0-1.47.328-2.613.948-3.602l4.04-6.407c-.56-5.511-.258-9.741-.258-12.558 0-4.814 1.265-8.261 2.877-10.306C9.356 1.209 11.98.135 11.172.9c.201-.59.453-.59.655 0 .073-.765 1.816.309 3.564 2.527 2.009 2.045 3.535 5.492 3.535 10.306 0 2.817-.355 7.047-.816 12.558l4.39 6.405c.171.991.499 2.134.499 3.604v7.054a.643.643 0 0 1-.422.607zM2.22 33.392c-.688.781-.947 2.368-.947 2.908v5.244l5.207-5.921c-.739-2.45-1.025-4.914-1.278-7.276L2.22 33.392zM16.29 6.801h-1.396a.641.641 0 0 1-.636-.646c0-.357.285-.646.636-.646h.399c-1.427-2.241-3.099-3.587-3.794-4.088A14.892 14.892 0 0 0 8.57 4.274c-.315.402-.606 1.606-.875 1.235h4.483c.352 0 .637.289.637.646a.641.641 0 0 1-.637.646H6.957c-1.07 2.109-1.611 4.43-1.611 6.932 0 2.747.36 7.07.927 12.614a.877.877 0 0 1 .007.072c.333 3.252.89 6.772 1.181 10.228a1.411 1.411 0 0 0 1.386 1.239h2.016V26.821c0-.357.285-.646.636-.646.352 0 .637.289.637.646v11.065h2.016c.699 0 1.295-.533 1.386-1.239a406.692 406.692 0 0 0 1.188-10.299c.567-5.545.927-9.868.927-12.615 0-2.789-.692-5.093-1.363-6.932zm4.687 26.59-3.181-5.044a402.046 402.046 0 0 1-.845 7.276l4.775 5.921V36.3c0-.54-.259-2.127-.749-2.909zM11.499 19.2c-2.597 0-4.71-1.63-4.71-4.778 0-2.636 2.113-4.78 4.71-4.78 3.471 0 4.711 2.144 4.711 4.78 0 3.148-1.24 4.778-4.711 4.778zm0-8.266c-1.895 0-2.879 1.564-2.879 3.488 0 1.922.984 3.487 2.879 3.487 1.896 0 3.438-1.565 3.438-3.487 0-1.924-1.542-3.488-3.438-3.488zm1.358 4.736c-.351 0-.636-.892-.636-1.248 0-.242-.324-.732-.722-.732-.351 0-.636-.29-.636-.25 0-.753.285-1.042.636-1.042 1.1 0 1.995.908 1.995 2.024 0 .356-.285 1.248-.637 1.248z"/>
</svg>
