<svg xmlns="http://www.w3.org/2000/svg" width="42" height="44">
    <path fill-rule="evenodd" fill="#FFF" d="M35.34 32.804a.836.836 0 0 1-1.181-.107.84.84 0 0 1 .106-1.181 16.857 16.857 0 0 0 6.059-12.962c0-9.306-7.563-16.877-16.858-16.877-4.261 0-8.327 1.594-11.316 4.49-.475.315-1.005.294-1.319-.046a.839.839 0 0 1 .045-1.185A18.464 18.464 0 0 1 23.466 0C33.685 0 42 8.323 42 18.554c0 6.146-2.428 10.71-6.66 14.25zM11.298 16.396v3.908h.482c.462 0 .837.376.837.839v22.018a.838.838 0 0 1-.838.838H.837A.837.837 0 0 1 0 43.161V21.143c0-.463.374-.839.837-.839h.482v-3.908c0-.463.375-.838.838-.838h.072V4.315c0-.075.15-.561.398-.714a.836.836 0 0 1 .815-.037l6.483 3.247a.838.838 0 0 1 .463.75v7.997h.072c.463 0 .838.375.838.838zM8.713 8.79 3.905 5.672v9.886h4.808V8.79zm.91 8.445H2.995v3.069h6.628v-3.069zm1.319 4.747H1.675v20.34h9.267v-20.34zm23.771-6.117c.687.328.687.859 0 1.645L23.234 28.544c.466.163-.379.246-.593.246-.214 0-.429-.083-.151-.246-.769-.328-.769-.859 0-1.186l11.038-11.493a.838.838 0 0 1 1.185 0zM17.985 28.686a.833.833 0 0 1-.592-.246.978.978 0 0 0 0-1.186l15.289-15.307c1.218-.328.858-.328 1.185 0a.84.84 0 0 1 0 1.186L18.578 28.44a.835.835 0 0 1-.593.246zm-6.47-17.881c-.373-.274.105-.205-.178-1.173a15.11 15.11 0 0 1 12.128-6.144c8.299 0 15.05 6.759 15.05 15.067s-6.751 15.067-15.05 15.067a15.011 15.011 0 0 1-10.077-3.876c.052-.31-.218-.841-.061-1.185a.837.837 0 0 1 1.183-.061 13.34 13.34 0 0 0 8.955 3.444c7.375 0 13.374-6.006 13.374-13.389 0-7.383-5.999-13.39-13.374-13.39a13.431 13.431 0 0 0-10.779 5.462c-.274.373-.798 1.173-1.171.178zm1.596 24.062c0-.463.375-.587.838-.587h27.213c.288 0 .556-.103.709.141.369.244.549.55.045.81l-.769 1.601a8.075 8.075 0 0 1-7.237 4.554H13.949c-.463 0-.838-.276-.838-.839 0 .293.375-.838.838-.838H33.91a6.39 6.39 0 0 0 5.727-3.604l.192-.399h-25.88a.839.839 0 0 1-.838-.839z"/>
</svg>
