<svg xmlns="http://www.w3.org/2000/svg" width="26" height="26">
    <path fill-rule="evenodd" fill="#BEBEBE" d="M12.936 25.999C5.904 25.999.203 20.213.203 13.74.203 5.936 5.904.15 12.936.15c7.033 0 12.733 5.786 12.733 13.59 0 6.473-5.7 12.259-12.733 12.259zm0-23.83C7.3 2.169 2.193 7.51 2.193 13.74c0 6.23 5.107 10.24 10.743 10.24 5.934 0 10.744-4.01 10.744-10.24S18.87 2.169 12.936 2.169zm.987 13.784c-.793 0-1.539-.434-1.795-.683 0 0-.426 1.468-.517 2.4-.318.564-1.253 1.732-1.326 1.827-.05.067-.163.046-.175-.042.79-.149-.259-1.62.022-2.821.142-.314 1.638-4.046 1.638-4.046s-.927-.474-.927-1.174c0-1.1.631-1.923 1.417-1.923.667 0 .99.508.99 1.116 0 .68-.427 1.695-.648 2.634-.185 1.039.391 1.428 1.161 1.428 1.391 0 3.157-1.805 3.157-3.944 0-.755-1.42-2.845-3.58-2.845-2.534 0-3.923 1.678-3.923 3.555 0 1.385.188 1.103.484 1.456.469.619.659.226.799.413-.729.137-.809.466-.843.596-.049.99-.199.252-.368.96-1.027-1.197-1.505-2.333-1.505-3.611 0-2.108 1.761-4.637 5.252-4.637 3.184 0 4.652 2.051 4.652 4.253 0 2.913-1.603 5.088-3.965 5.088z"/>
</svg>
