<svg xmlns="http://www.w3.org/2000/svg" width="26" height="26">
    <path fill-rule="evenodd" fill="#BEBEBE" d="M12.999 25.879C5.966 25.879.265 20.92.265 12.954.265 5.815 5.966.29 12.999.29c7.311 0 12.733 5.525 12.733 12.664 0 7.966-5.422 12.925-12.733 12.925zm0-23.389C7.65 2.49 2.255 6.931 2.255 12.954c0 6.023 5.395 10.905 10.744 10.905 5.933 0 10.743-4.882 10.743-10.905S18.932 2.49 12.999 2.49zm5.911 7.637c0 .015.02.03.02.044 0 .011-.02.024-.02.036 0 .005.02.011.02.016-.66 4.631-3.951 8.385-8.189 8.385-1.491 0-2.9-.465-4.109-1.27 1.779.309 3.217-.659 3.638-1.191-.39 0-1.67-.717-2.348-1.95.239.041.784.092 1.238-.09-1.749-.48-2.189-1.806-2.171-2.805.268.285.839.35 1.147.324-.903-.476-1.592-2.287-.796-3.794 1.296 1.845 3.597 2.923 5.564 2.979h.001a3.13 3.13 0 0 1-.067-.64c0-1.586 1.302-2.871 2.626-2.871.748 0 1.421.34 1.9.887l-.001-.002c.42 0 1.269-.376 1.837-.634-.338.59-.908 1.333-1.293 1.56.6.349 1.244-.323 1.458-.453-.371.673-.888 1.182-.455 1.469z"/>
</svg>
