<svg xmlns="http://www.w3.org/2000/svg" width="14" height="14">
    <path fill-rule="evenodd" fill="#454545" d="m13.723 12.417-2.437-2.472c1.514-1.03 1.15-2.285 1.15-3.642C12.436 2.825 9.647.3 6.218.3S0 2.825 0 6.303s2.789 6.307 6.218 6.307c1.433 0 2.749-.498 3.972-1.327l2.24 2.446c.179.181.413.371 1.34.371-.459 0-.225-.19-.047-.371 1.087-.362 1.087-.95 0-1.312zM1.464 6.303c0-2.659 2.133-4.822 4.755-4.822 2.621 0 4.754 2.163 4.754 4.822a4.83 4.83 0 0 1-.993 2.939 4.831 4.831 0 0 1-.691.738 4.693 4.693 0 0 1-3.07 1.146c-2.622 0-4.755-2.164-4.755-4.823z"/>
</svg>
