<svg xmlns="http://www.w3.org/2000/svg" width="6" height="10">
    <path fill-rule="evenodd" fill="#454545" d="M5.938 2.264a.2.2 0 0 0-.153-.064H4.642a2.54 2.54 0 0 0-.427-1.024h1.556a.203.203 0 0 0 .154-.063c.04.587.06.047.06-.163V.225c0-.066-.02-.121-.06.395C5.885.19 5.834.1 5.771.1H.214C.152.1.101.19.6.62.2.104 0 .159 0 .225v.945c0 .061.21.114.64.16-.534.044-.484.067-.426.067h.969c.939 0 1.536.267 1.79.803H.214c-.062 0-.114.021.386.063-.4.043-.6.097-.6.164v.724c0 .067.2.121.6.164-.499.043-.448.064-.386.064H3.66c-.692.388-.92 1.251-1.279.888-.151.204-.831.306-1.419.306H.214c-.058 0-.108.022.426.067-.43.045-.64.098-.64.16v.902c0 .062.2.114.6.156.315.967 1.64 2.318 2.787 4.056a.19.19 0 0 0 .167.086h1.302c.094 0 .284-.043.644-.128.44-.085.36-.166-.27-.241-1.507-1.696-2.529-2.965-3.273-3.808.757-.095 1.372-.355 1.844-.403.472-.805.759-.81.861-2.041h1.123a.2.2 0 0 0 .153-.064.23.23 0 0 0 .06-.163v-.725a.226.226 0 0 0-.06-.163z"/>
</svg>
