<svg xmlns="http://www.w3.org/2000/svg" width="26" height="26">
    <path fill-rule="evenodd" fill="#BEBEBE" d="M13.206 25.969C6.173 25.969.473 20.183.473 13.44.473 5.906 6.173.119 13.206.119S25.939 5.906 25.939 13.44c0 6.743-5.7 12.529-12.733 12.529zm0-23.83C7.272 2.139 2.462 7.21 2.462 13.44s4.81 10.509 10.744 10.509S23.949 19.67 23.949 13.44 19.14 2.139 13.206 2.139zm4.041 17.368H9.165c-1.284 0-2.326-1.083-2.326-1.577v-3.073c0-1.333 1.042-2.414 2.326-2.414h8.082c1.286 0 2.325 1.081 2.325 2.414v3.073c0 .494-1.039 1.577-2.325 1.577zm-6.349-5.882H9.159v.587h.569v4.111h.583v-4.111h.587v-.587zm1.727 1.189h-.095v2.709c-.533.067-.632.125-.7.168a.429.429 0 0 1-.206.069c-.056 0-.098-.018-.124-.05-.025-.035-.038-.089-.038-.164v-2.732h-.587v2.95c0 .191.053 1.196.124.429.701.096.177.142.317.142a.681.681 0 0 0 .352-.102c.122-.067.238.047.512-.331v.424h.445v-3.512zm2.317.729c0-.263-.05.237-.151-.601a.511.511 0 0 0-.439-.21c-.095 0-.188.026.348.077-.717.052-.841.127-.924.531v-1.715H13.2v4.663h.611v.122c.081-.268.168-.197.889-.151-.537.048-.431.073-.31.073a.498.498 0 0 0 .411-.185c.094.103.141-.295.141-.524v-2.08zm2.308.439c0-.291-.071-.786.06-.612-.421-.488-.629-.564-.9-.564-.263 0-.476.082-.644.784-.166-.365-.251.126-.251.392v1.388c0 .298.077.532.228 1.31.153-.44.359-.356.625-.356.292 0 .512-.081.922.526-.111-.925-.04-1.163-.04-1.48v-.16h-.606v.14c0 .185-.022.299-.06.353-.039.054-.105.081-.202.081-.097 0-.161-.033-.2-.095-.039-.064-.06-.175-.06-.339v-.782h1.128v-.586zm-1.128-.003c0-.131.022-.496.062-.55.04-.056.109-.085.201-.085.09 0 .159.029.197.085.04.054.062.419.062.55v.891h-.522v-.891zm-2.019 1.846c.407 0 .197-.012-.145-.037a.632.632 0 0 1-.182-.113v-2.298c.042-.044.12-.078.16-.097.044-.021.274-.031.724-.031-.514 0-.451.025-.404.081.04.058.116.14.116.248v1.956c0 .103-.072.177-.105.22-.035.047-.09.071-.164.071zm1.405-7.244c-.153.282-.297.929-.148.606-.552.176-.802.161-.881.08-.117-.12-.135-.443-.135-.665V7.744h.581v2.605c0 .088.016.15.046.189.229.04.179.058.849.058-.684 0-.381-.416-.312.384V7.744h1.372v3.464h-1.372v-.627zm-2.575.718c-.316 0-.408-.091-.598-.059-.19-.402.155-.651.155-.965V8.732c0-.284-.355-.526-.159-.372.196-.492.287-.618.618-.618.3 0 .392.108.575.618.159-.163.249.114.249.395v1.536c0 .316-.092.563-.279 1.039-.19-.121-.232-.031-.561-.031zm.267-2.593a.242.242 0 0 0-.09-.195c.39-.05.79-.075-.196-.075a.307.307 0 0 0-.216.075.25.25 0 0 0-.084.195v1.638c0 .102.026.181.079.235.05.055.124.083.221.083.206 0 .606-.028.199-.083a.322.322 0 0 0 .087-.235V8.706zm-2.305 2.574h-.6V9.889L9.25 6.582h1.49l-.136 1.994h.05l.506-1.994h.83l-1.095 3.215v1.483z"/>
</svg>
