<svg xmlns="http://www.w3.org/2000/svg" width="20" height="15">
    <path fill-rule="evenodd" fill="#454545" d="M17.499 0h-15A2.499 2.499 0 0 0 0 2.499v10a2.5 2.5 0 0 0 2.499 2.5h15a2.5 2.5 0 0 0 2.5-2.5v-10A2.499 2.499 0 0 0 17.499 0zm-4.115 6.669 5.292-4.535c.037.118.073.235.073.365v10c0 .086-.033.163-.05.245l-5.315-6.075zm4.115-5.42c.083 0 .156.031.235.047l-7.735 6.63-7.734-6.63c.078-.016.151-.047.234-.047h15zm-16.2 11.494c-.017-.082-.05-.158-.05-.244v-10c0-.13.037-.247.074-.365l5.29 4.534-5.314 6.075zm1.2 1.006c-.126 0-.241-.037-.356-.072l5.42-6.194 2.03 1.739a.62.62 0 0 0 .813 0l2.03-1.739 5.42 6.194c-.115.035-.23.072-.357.072h-15z"/>
</svg>
