<svg xmlns="http://www.w3.org/2000/svg" width="44" height="44">
    <path fill-rule="evenodd" fill="#FFF" d="M42.967 25.757a1.033 1.033 0 0 1 0 2.066H37.89v2.724h5.077c.57 0 1.032.553 1.032 1.033 0 .571-.462 1.033-1.032 1.033H37.89v4.244c0 .57-.463 1.032-1.033 1.032h-4.244v5.078c0 .57-.462 1.032-1.033 1.032-.48 0-1.032-.462-1.032-1.032v-5.078h-2.725v5.078a1.033 1.033 0 0 1-2.066 0v-5.078H23.32v5.078c0 .57-.75 1.032-1.321 1.032-.57 0-1.032-.462-1.032-1.032v-5.078h-2.725v5.078a1.033 1.033 0 0 1-2.066 0v-5.078h-2.725v5.078a1.032 1.032 0 0 1-2.066 0v-5.078H7.142a1.032 1.032 0 0 1-1.033-1.032v-4.244H1.32c-.858 0-1.32-.462-1.32-1.033 0-.48.462-1.033 1.32-1.033h4.789v-2.724H1.32C.462 27.823 0 27.36 0 26.79c0-.57.462-1.033 1.32-1.033h4.789V23.32H1.32c-.858 0-1.32-.75-1.32-1.321 0-.57.462-1.033 1.32-1.033h4.789v-2.725H1.32c-.858 0-1.32-.462-1.32-1.032 0-.571.462-1.033 1.32-1.033h4.789v-2.725H1.32c-.858 0-1.32-.462-1.32-1.033 0-.57.462-1.033 1.32-1.033h4.789V7.142c0-.571.462-1.033 1.033-1.033h4.243V1.32c0-.858.463-1.32 1.033-1.32.571 0 1.033.462 1.033 1.32v4.789h2.725V1.32c0-.858.462-1.32 1.033-1.32.57 0 1.033.462 1.033 1.32v4.789h2.725V1.32c0-.858.462-1.32 1.032-1.32.571 0 1.321.462 1.321 1.32v4.789h2.437V1.32c0-.858.462-1.32 1.033-1.32.57 0 1.033.462 1.033 1.32v4.789h2.725V1.32c0-.858.552-1.32 1.033-1.32.57 0 1.032.462 1.032 1.32v4.789h4.244c.57 0 1.033.462 1.033 1.033v4.243h5.077a1.033 1.033 0 0 1 0 2.066H37.89v2.725h5.077a1.032 1.032 0 0 1 0 2.065H37.89v2.725h5.077c.57 0 1.032.463 1.032 1.033 0 .571-.462 1.321-1.032 1.321H37.89v2.437h5.077zm-7.143 6.856h-.911c-.57 0-1.033-.462-1.033-1.033 0-.48.463-1.033 1.033-1.033h.911v-2.724h-.911a1.034 1.034 0 0 1 0-2.066h.911V23.32h-.911c-.57 0-1.033-.75-1.033-1.321 0-.57.463-1.033 1.033-1.033h.911v-2.725h-.911a1.032 1.032 0 1 1 0-2.065h.911v-2.725h-.911a1.032 1.032 0 1 1 0-2.066h.911V8.174h-3.211V9.86c0-.204-.462.259-1.033.259-.48 0-1.032-.463-1.032-.259V8.174h-2.725V9.86c0-.204-.463.259-1.033.259-.571 0-1.033-.463-1.033-.259V8.174H23.32V9.86c0-.204-.75.259-1.321.259-.57 0-1.032-.463-1.032-.259V8.174h-2.725V9.86c0-.204-.463.259-1.033.259-.571 0-1.033-.463-1.033-.259V8.174h-2.725V9.86c0-.204-.462.259-1.033.259-.57 0-1.033-.463-1.033-.259V8.174h-3.21v3.211H9.86c-.204 0 .259.463.259 1.033 0 .571-.463 1.033-.259 1.033H8.175v2.725H9.86c-.204 0 .259.462.259 1.033 0 .57-.463 1.032-.259 1.032H8.175v2.725H9.86c-.204 0 .259.463.259 1.033 0 .571-.463 1.321-.259 1.321H8.175v2.437H9.86c-.204 0 .259.463.259 1.033 0 .57-.463 1.033-.259 1.033H8.175v2.724H9.86c-.204 0 .259.553.259 1.033 0 .571-.463 1.033-.259 1.033H8.175v3.211h3.21v-.911a1.033 1.033 0 0 1 2.066 0v.911h2.725v-.911a1.032 1.032 0 1 1 2.066 0v.911h2.725v-.911c0-.571.462-1.033 1.032-1.033.571 0 1.321.462 1.321 1.033v.911h2.437v-.911a1.032 1.032 0 1 1 2.066 0v.911h2.725v-.911c0-.571.552-1.033 1.033-1.033.57 0 1.032.462 1.032 1.033v.911h3.211v-3.211zm-8.27-4.027H16.445c-.57 0-1.033-.462-1.033-1.033V16.445c0-.57.463-1.033 1.033-1.033h11.109c.57 0 1.032.463 1.032 1.033v11.108c0 .571-.462 1.033-1.032 1.033zm-1.033-11.108h-9.043v9.043h9.043v-9.043z"/>
</svg>
