<svg xmlns="http://www.w3.org/2000/svg" width="44" height="42">
    <path fill-rule="evenodd" fill="#FFF" d="M21.46 41.118c0 .487-.814.882-1.309.882H15.17c-.647 0-1.048-.395-1.048-.882 0-.488.401-.883 1.048-.883h4.981c.495 0 1.309.395 1.309.883zm-10.139-.883H6.187a.89.89 0 0 0-.896.883.89.89 0 0 0 .896.882h5.134a.889.889 0 0 0 .895-.882.889.889 0 0 0-.895-.883zM6.734 8.112a.9.9 0 0 0 .608.235c.241 0 .48-.095.657.303.336-.943.315-1.501-.048-1.832L6.569 5.554a.903.903 0 0 0-1.265.047.874.874 0 0 0 .047 1.247l1.383 1.264zm29.923.235c.218 0 1.273-.078.608-.235l1.383-1.264c.452-.332.662-.89.047-1.247a.903.903 0 0 0-1.265-.047l-.95 1.264c-.795.331-.816.889-.48 1.832.177-.398.417-.303.657-.303zM22 3.486c.494 0 .895.414.895-.883V.881C22.895.393 22.494.1 22 .1c-.495 0-.896.293-.896.781v1.722c0 1.297.401.883.896.883zm-6.298 34.236a.89.89 0 0 0 .895-.883.889.889 0 0 0-.895-.882h-5.134c.162 0-.896.395-.896.882s1.058.883.896.883h5.134zm28.297-5.161c0 .919-.4.882-.895.882H.895c-.495 0-.895.037-.895-.882 0 .169.4-.883.895-.883H2.92V24.57c0-5.285 1.214-9.78 4.922-13.171 3.689-3.139 8.57-5.231 13.744-5.231h.827c5.174 0 10.055 2.092 13.744 5.231 3.707 3.391 5.749 7.886 5.749 13.171v7.108h1.198c.495 0 .895 1.052.895.883zM3.883 27.355C9.956 25.9 14.994 22.221 18.2 17.422c-2.726 1.764-5.565 3.11-8.549 3.954a.896.896 0 0 1-1.107-.604.881.881 0 0 1 .614-1.092 26.416 26.416 0 0 0 10.098-5.463c.198.233 1.294-1.023.875-1.253.532-1.612.857-3.297 1.639-5.024-10.22.245-17.887 7.381-17.887 16.63v2.785zm36.233 1.813c-5.199-1.048-9.926-3.889-13.361-7.735-2.221-2.487-3.835-4.813-4.756-8.436-.209 3.623-2.534 5.949-4.755 8.436-3.435 3.846-7.424 6.687-13.361 7.735v2.51h36.233v-2.51zm0-4.598c0-9.249-7.667-16.385-17.195-16.63.229 1.795.441 3.544 1.011 5.214.368.209.576 1.776.755 1.094 2.902 2.515 6.823 4.385 10.063 5.432a.88.88 0 0 1 .613 1.092.896.896 0 0 1-1.107.604c-2.92-.826-5.702-2.133-7.756-3.842 3.33 4.744 8.4 8.377 13.616 9.821V24.57zm-2.304 15.665h-5.134a.888.888 0 0 0-.895.883c0 .487.4.882.895.882h5.134a.888.888 0 0 0 .895-.882c0-.488-.4-.883-.895-.883zm-13.245-2.513c1.043 0 .895-.396.895-.883s.148-.882-.895-.882h-5.135a.889.889 0 0 0-.895.882.89.89 0 0 0 .895.883h5.135zm8.864 0a.889.889 0 0 0 .895-.883c0-.487-.4-.882-.895-.882h-5.134a.888.888 0 0 0-.895.882c0 .487.4.883.895.883h5.134zm-4.449 2.513h-5.135a.889.889 0 0 0-.895.883c0 .487.401.882.895.882h5.135a.889.889 0 0 0 .895-.882.889.889 0 0 0-.895-.883z"/>
</svg>
