<svg xmlns="http://www.w3.org/2000/svg" width="26" height="26">
    <path fill-rule="evenodd" fill="#BEBEBE" d="M13.27 25.939C6.237 25.939.537 20.153.537 13.14.537 5.876 6.237.89 13.27.89c7.032 0 13.03 4.986 13.03 12.25 0 7.013-5.998 12.799-13.03 12.799zm0-23.83c-5.934 0-10.744 4.882-10.744 11.031 0 6.23 4.81 10.779 10.744 10.779S24.13 19.37 24.13 13.14c0-6.149-4.926-11.031-10.86-11.031zm5.55 8.48h-1.548V8.995h-1.585v-.826h1.585V6.578h1.548v1.591h.821v.826h-.821v1.594zM13.119 7.78s1.127.006 1.127 1.389c0 1.384-.659 1.986-1.491 2.731-.831.745-.346 1.98.953 2.38 2.092.686 1.663 3.16-.017 4.271-1.581 2.029-6.792 1.305-6.792-.951 0-3.336 3.847-3.378 4.681-3.378-.211 0-.158-.088-.418-.372-.261-.282-.678-.68-.191-1.436-.867.037-3.258-.443-3.258-2.677s2.467-3.191 3.135-3.191h4.142s-.189.16-.623.407c-.433.248-1.248.827-1.248.827zm-4.748 8.766c0 1.294.918 2.163 3.029 2.163 1.317 0 2.325-.585 2.325-1.791 0-1.207-1.133-1.809-1.767-2.306-2.339 0-3.587.638-3.587 1.934zm2.305-9.574c-2.427 0-1.491 4.892.572 4.892 2.737 0 1.316-4.964-.572-4.892z"/>
</svg>
