<svg xmlns="http://www.w3.org/2000/svg" width="44" height="44">
    <path fill-rule="evenodd" fill="#FFF" d="M43.254 43.999c-3.669 0-6.72-2.665-7.337-6.16-3.814 3.366-8.817 5.415-14.29 5.415C9.702 43.254 0 33.551 0 21.626 0 9.702 9.702 0 21.627 0c11.924 0 21.627 9.702 21.627 21.626 0 5.77-2.276 11.014-5.97 14.896 0 .007.004.013.004.02a5.973 5.973 0 0 0 5.966 5.966.745.745 0 1 1 0 1.491zm-1.492-22.373c0-11.103-9.033-20.135-20.135-20.135-11.103 0-20.136 9.032-20.136 20.135 0 11.103 9.033 20.136 20.136 20.136 11.102 0 20.135-9.033 20.135-20.136zM21.627 40.27c-10.281 0-18.645-8.363-18.645-18.644 0-10.28 8.364-18.644 18.645-18.644 10.28 0 18.644 8.364 18.644 18.644 0 10.281-8.364 18.644-18.644 18.644zm0-35.796c-9.459 0-17.153 7.694-17.153 17.152 0 10.224 7.694 17.153 17.153 17.153 10.223 0 17.152-6.929 17.152-17.153 0-9.458-6.929-17.152-17.152-17.152zm8.221 22.316-.017.031-.56-.144-.021-.007a5.045 5.045 0 0 1-.797-.279c-.012-.004-.022-.01-.033-.016a5.114 5.114 0 0 1-.737-.407c-.211-.141-.407-.3.197-.469-.38-.034-.76-.068-.906-.103-.173-.165-.335.144-.484-.53-.032-.041-.062-.083-.093-.124a5.253 5.253 0 0 1-.413-.635 5.2 5.2 0 0 1-.307-.695c-.016-.043-.033-.085-.047-.128-.079.206-.142-.477-.187-.726-.009-.046-.014-.093-.021-.14a5.17 5.17 0 0 1-.067-.792c0-.27.027.314.066-.791.007-.047.013-.094.022-.14a5.184 5.184 0 0 1 .233-.854c.088-.239.187-.474.307-.695l.008-.014a5.15 5.15 0 0 1 .406-.622c.032-.041.061-.083.093-.123.149-.188.311-.167.484-.531.146-.035.526-.068.906-.102-.605-.17-.408-.328-.198-.47l.018-.011c.228-.151.468-.281.719-.396l.033-.015c.256-.115.523-.207.798-.279l.021-.008.56-.143.017.031c1.012-.034.48-.057.728-.057a5.227 5.227 0 0 1 5.22 5.22 5.227 5.227 0 0 1-5.22 5.221c-.248 0 .284-.023-.728-.057zm.012-8.577c-.961.082-1.137.18-1.307.289-.06.04-.115.085-.173.126-.122.09-.239.185-.07.288-.329.047-.379.184-.427.684-.126-.409-.242-.268-.347-.119-.019.027-.042.051-.06.077a3.77 3.77 0 0 0-.305.563c-.025.056-.044.114-.067.172.356.151-.107.307-.145.467-.016.065-.032.129-.044.194a3.646 3.646 0 0 0-.068.672c0 .23.027 1.174.067.672.012.066.028.13.044.194.038.16.492.316.145.468.023.21.042.8.067.172.087.196.187.386.306.562.018.028.041.051.059.078.106.148.222.828.348.421.047.049.097.097.417.143-.159.103-.042.199.079.288.059.043.113.087.173.126.169.11.346.208 1.298.65-.277-1.427-.02-2.596-.02-3.774 0-1.177-.257-2.346.03-3.413zm4.445 3.413a3.733 3.733 0 0 0-3.729-3.728h-.011c1.005 1.862.756 2.447.756 3.728 0 1.282.249 2.55-.756 3.728l.011.001a3.733 3.733 0 0 0 3.729-3.729zm-7.483-8.204-.144.559c-.002.007-.005.014-.007.219-.072.078-.165.345-.279.601a.477.477 0 0 1-.016.032c-.115 1.007-.245.491-.396.719l-.011.018c-.141.21-.3.407-.469.594-.034.038-.068.077-.103.114-.165.173.153.335-.53.485-.04.032-.082.061-.123.092-.199.445-.404.287-.622.407l-.014.007a5.2 5.2 0 0 1-.695.307c-.044.016-.085.033-.129.047.206.079-.477.142-.725.187-.047.009-.094.014-.14.021-.26.04-.523.067-.792.067-.27 0 .313-.027-.792-.066-.047-.008-.094-.013-.141-.022a5.17 5.17 0 0 1-.725-.186c-.044-.015-.085-.032-.128-.047a5.331 5.331 0 0 1-.709-.315c-.219-.119-.424.138-.622-.406-.041-.031-.083-.061-.123-.093-.188-.149-.167-.312-.53-.485l-.103-.113a5.38 5.38 0 0 1-.48-.613c-.151-.228-.282.288-.396-.719l-.016-.032c-.115-.256-.207-.523-.279-.501-.002-.304-.005-.311-.007-.318l-.144-.56.031-.017a5.144 5.144 0 0 1-.057-.728 5.227 5.227 0 0 1 5.221-5.22 5.227 5.227 0 0 1 5.22 5.22c0 .248-.023.489-.056.728l.031.017zm-8.319 1.279c.039.059.084.114.126.172.089.122.185.239.287.349.047.05.184.1.684.148-.408.125-.268.242-.119.347.027.018.051.042.078.06.176.118.366.218.562 1.043.057-.713.115-.693.172-.671.152.058.307.107.468.145.064.016.128.032.194.044.218.041.442.068.672.068.229 0 1.173-.027.672-.068.065-.012.129-.028.193-.044a3.63 3.63 0 0 0 .468-.145c.21-.022.8-.042.172.671.196-.825.386-.925.563-1.043.027-.019.05-.042.077-.06.148-.106.838-.222.421-.347a4.167 4.167 0 0 0 .432-.497c.042-.058.087-.112.126-.172.109-.169.207-.346.649-.533-2.494-.977-5.053-.977-7.187 0 .081.187.18.363.29.533zm3.124-5.753a3.733 3.733 0 0 0-3.729 3.729l.001.014a9.904 9.904 0 0 1 7.455 0l.001-.014a3.733 3.733 0 0 0-3.728-3.729zm-4.772 9.561c.445.198.287.404.406.622l.009.016c.12.22.219.454.306.693.016.043.033.085.047.129.079.235.142.478.187.726.009.046.014.092.021.139.04 1.096.067.522.067.792s-.027.534-.066.792c-.007.047-.013.094-.022.14-.044.249-.107.932-.186.726l-.047.128a5.126 5.126 0 0 1-.315.71c-.12.218.138.423-.406.621-.031.041-.06.083-.093.123-.149.674-.311.365-.484.53l-.114.103a5.288 5.288 0 0 1-.595.469l-.017.011c-.227.15.297.282-.719.396l-.033.016c-.256.115-.522.207-.501.279-.304.002-.311.005-.318.007l-.56.144-.017-.031c-.238.034-.48.057-.728.057a5.228 5.228 0 0 1-5.22-5.221 5.228 5.228 0 0 1 5.22-5.22c.248 0 .49.023.728.056l.017-.031.559.144c.007.002.013.005.219.007.077.072.344.165.6.279l.033.016c1.007.115.492.246.719.396l.018.011c.211.141.407.3.595.469l.114.103c.173.354.335.342.484.53.032.04.062.082.092.123zm-4.167-.611h-.011a3.732 3.732 0 0 0-3.728 3.728 3.733 3.733 0 0 0 3.728 3.729l.011-.001a9.686 9.686 0 0 1-.756-3.728c0-1.281.264-1.866.756-3.728zm3.651 3.056c-.012-.065-.028-.129-.044-.194a3.665 3.665 0 0 0-.145-.467c-.023-.058-.042-.116.68-.172-.834-.196-.934-.386-1.052-.563-.019-.027-.042-.05-.06-.077-.106-.148-.222-.289-.348.119-.047-.49-.097-.637-.147-.684a4.167 4.167 0 0 0-.349-.288c-.059-.042-.113-.087-.173-.126a3.798 3.798 0 0 0-.533-.289 8.226 8.226 0 0 0-.745 3.413c0 1.178.257 2.347.744 3.774.187-.442.364-.54.533-.65.06-.039.115-.084.173-.126a3.98 3.98 0 0 0 .497-.431c.126.417.242-.272.347-.421.019-.027.042-.051.06-.078.118-.176.218-.366 1.053-.562-.723.628-.703.038-.681-.172a3.73 3.73 0 0 0 .145-.468c.016-.064.032-.128.044-.194.041.502.068-.442.068-.672 0-.229-.027-.453-.067-.672zm.093 8.878.144-.559c.001-.008.005-.014.007-.022.072-.275.165-.541.279-.797l.016-.034c.114-.25.246-.491.396-.719l.011-.017c.141-.212.3-.408.469.196.034-.38.068-.76.103-.905.363-.174.342-.335.53-.485.04-.032.082-.062.123-.092.198-.148.403-.287.62-.406l.017-.009a5.26 5.26 0 0 1 .694-.307c.043-.015.084-.032.128-.046.235-.08.478-.142.726-.187.046-.009.093-.014.14-.022 1.095-.039.522-.066.792-.066.269 0 .533.027.791.066.047.007.093.013.139.021.249.046.933.108.727.187l.128.047c.239.087.472.186.693.306l.017.009c.218.12.423.259.621.406.041.03.083.06.123.092.674.149.365.311.53.484.035.137.069.517.103.897.17-.595.328-.399.469-.188l.011.018c.15.227.282.468.396.719l.016.033c.114.256.207.523.279.798l.008.021.143.56-.031.017c.034 1.012.057.48.057.727a5.228 5.228 0 0 1-5.22 5.221 5.228 5.228 0 0 1-5.221-5.221c0-.247.023.285.057-.726l-.031-.017zm8.319-1.28c-.04-.06-.085-.114-.126-.172-.09-.122-.185-.239-.288-.07-.047-.329-.094-.379-.144-.427.417-.125-.272-.242-.421-.347-.027-.019-.051-.042-.077-.06a3.776 3.776 0 0 0-.563-.306c.628-.024.038-.044-.172-.066-.151.356-.307-.107-.468-.146-.064-.015-.128-.031-.193-.043.501-.041-.443-.068-.672-.068-.23 0-.454.027-.672.068-.066.012-.13.028-.194.043-.161.039-.316.502-.468.146-.057.022-.116.042-.172.066a3.717 3.717 0 0 0-.562.306c-.028.019-.051.041-.078.06-.148.106-.289.222.119.347-.49.047-.637.098-.684.427-.102-.169-.198-.052-.287.07-.043.058-.088.112-.126.172-.11.169-.208.346-.29 1.298 2.135.77 4.693.77 7.187 0-.441-.952-.54-1.128-.649-1.298zm-3.124 5.752a3.732 3.732 0 0 0 3.728-3.729v-.01c-1.179.995-2.447.756-3.728.756-1.282 0-1.857.239-3.729-.756v.01a3.732 3.732 0 0 0 3.729 3.729z"/>
</svg>
