<svg xmlns="http://www.w3.org/2000/svg" width="14" height="20">
    <path fill-rule="evenodd" fill="#454545" d="M11.125 13.984c-1.348 2.342-2.67 4.289-2.725 4.371l-.963 1.415a.53.53 0 0 1-.438.229.53.53 0 0 1-.438-.229l-.962-1.415a76.63 76.63 0 0 1-2.726-4.371C.912 10.578 0 8.29 0 6.787 0 3.44 3.139 0 6.999 0s7 3.44 7 6.787c0 1.503-.139 3.791-2.874 7.197zM6.999 1.16c-3.281 0-5.519 2.444-5.519 5.627 0 1.943.49 3.542 2.309 6.702a74.807 74.807 0 0 0 2.686 4.306l.524.771.525-.771a74.354 74.354 0 0 0 2.685-4.306c2.071-3.16 2.741-4.759 2.741-6.702 0-3.183-2.669-5.627-5.951-5.627zm0 9.346c-2.14 0-3.881-1.687-3.881-3.762 0-2.076 1.741-3.763 3.881-3.763 2.14 0 3.881 1.687 3.881 3.763 0 2.075-1.741 3.762-3.881 3.762zm0-6.509c-1.561 0-2.832 1.233-2.832 2.747 0 1.514 1.271 2.746 2.832 2.746 1.562 0 2.832-1.232 2.832-2.746s-1.27-2.747-2.832-2.747z"/>
</svg>
