<svg xmlns="http://www.w3.org/2000/svg" width="26" height="26">
    <path fill-rule="evenodd" fill="#BEBEBE" d="M13.63 25.848C6.3 25.848.329 20.62.329 12.924.329 5.785 6.3 0 13.63 0c7.32 0 12.166 5.785 12.166 12.924 0 7.696-4.846 12.924-12.166 12.924zm0-23.668c-6.501 0-11.311 4.721-11.311 10.744s4.81 10.905 11.311 10.905c5.366 0 10.176-4.882 10.176-10.905S18.996 2.18 13.63 2.18zm3.21 8.766-1.098 2.281h-1.873v6.159h-2.205v-6.159H10.41v-2.281h1.254V9.171c0-1.058.511-2.709 2.748-2.709l2.108.008v2.215h-1.898c-.24 0-.753.116-.753.62v1.641h2.971z"/>
</svg>
