<svg xmlns="http://www.w3.org/2000/svg" width="6" height="10">
    <path fill-rule="evenodd" fill="#454545" d="M5.938 2.264a.2.2 0 0 0-.153-.065H4.643a2.558 2.558 0 0 0-.428-1.023h1.556a.203.203 0 0 0 .154-.063c.04.597.06.047.06-.163V.224c0-.065-.02-.12-.06.396C5.885.19 5.834.1 5.771.1H.214C.152.1.101.19.6.62.2.104 0 .159 0 .224v.946c0 .061.21.114.64.16-.534.044-.484.067-.426.067h.969c.939 0 1.536.267 1.79.802H.214c-.062 0-.114.022.386.065-.4.042-.6.096-.6.163v.724c0 .067.2.121.6.164-.499.043-.448.064-.386.064H3.66c-.692.389-.92 1.251-1.279.888-.151.204-.831.305-1.419.305H.214c-.058 0-.108.023.426.068-.43.045-.64.098-.64.16v.902c0 .062.2.114.6.156.315.966 1.64 2.318 2.787 4.057.04.057.096.085.167.085h1.302c.094 0 .284-.043.644-.128.44-.085.36-.166-.27-.242-1.507-1.695-2.529-2.964-3.273-3.807.757-.095 1.372-.355 1.844-.403.472-.805.759-.81.862-2.041h1.122a.2.2 0 0 0 .153-.064.23.23 0 0 0 .06-.164v-.724a.226.226 0 0 0-.06-.163z"/>
</svg>
