<svg xmlns="http://www.w3.org/2000/svg" width="26" height="26">
    <path fill-rule="evenodd" fill="#BEBEBE" d="M12.729 25.909C5.696 25.909.3 20.123.3 12.984.3 5.846 5.696.59 12.729.59s12.733 5.256 12.733 12.394c0 7.139-5.7 12.925-12.733 12.925zm0-23.129c-5.934 0-10.744 4.181-10.744 10.204 0 6.716 4.81 10.905 10.744 10.905S23.473 19.7 23.473 12.984c0-6.023-4.81-10.204-10.744-10.204zm3.984 11.006c-.035-.19-.58-1.548-1.592-1.615a2.035 2.035 0 0 0-2.387 1.615v5.655h-2.388V9.747h2.388v1.616c.133-.069 1.139-1.581 3.183-1.616 2.613.035 3.783 2.025 3.993 2.994v6.711l-3.197-.011v-5.655zM6.367 9.747h2.387v9.694H6.367V9.747zm1.194-.807a1.204 1.204 0 0 1-1.194-1.212c0-.148.535-1.212 1.194-1.212.659 0 1.193 1.064 1.193 1.212 0 .669-.534 1.212-1.193 1.212z"/>
</svg>
