<svg xmlns="http://www.w3.org/2000/svg" width="20" height="20">
    <path fill-rule="evenodd" fill="#454545" d="M9.999.5C4.488.5.6 4.488.6 9.999c0 5.51 3.888 9.993 9.399 9.993a.615.615 0 0 0 .616-.615c0-.007-.275-.617-.616-.617-4.831 0-8.76-3.93-8.76-8.761 0-4.831 3.929-8.761 8.76-8.761 4.832 0 8.761 3.93 8.761 8.761 0 2.181-1.074 4.201-2.612 4.868a3.774 3.774 0 0 1-1.811.465c.389-.231 1.273-.543.974-.937.049-.074.113-.137.145-.22.201-.483.218-1.029.34-1.539.148-.653-2.85-1.923-3.11-1.11-.095.301-.239 1.252-.428 1.764.632-.037-.583-.142-.843-.364-.683-.582-1.447-1.438-2.116-2.115H9.3l-.056-.056-.057-.056C8.51 10.3 7.653 9.268 7.71 8.583c-.859-.26-.965-.673-.741-.842.251-.19 1.203-.332 1.504-.427.811.226-.333-2.774-1.112-3.111-.509.12-1.056.138-1.539.338-.082.034-.145.098-.22.146C3.89 5.774 3.669 8.41 5.34 10.373a46.166 46.166 0 0 0 1.986 2.187l-.004.004c.019.019.039.036.059.054l.053.058.004-.003c.71.684 1.551 1.691 2.918 2.602 2.878 1.923 5.087 1.386 6.387.672 2.245-1.237 3.25-3.257 3.25-5.847 0-5.612-4.483-9.6-9.994-9.6z"/>
</svg>
