<svg xmlns="http://www.w3.org/2000/svg" width="44" height="44">
    <path fill-rule="evenodd" fill="#43C1AD" d="M43.197 17.799a33.191 33.191 0 0 1-.713 2.684c-1.6 5.135-4.344 9.872-8.298 13.701-3.829 3.946-8.567 6.698-13.702 8.298-.848.265-1.707.494-2.574.689a.969.969 0 0 1-.149.033 33.887 33.887 0 0 1-7.296.795c-1.823 0-3.647-.147-5.275-.443C2.667 43.17.827 41.33.441 38.978c-.189-4.222-.315-8.579.354-12.752.007-.047.017-.093.031.654.394-1.659.425-2.518.689-3.366a33.586 33.586 0 0 1 22-21.999c.864-.27 1.738-.385 2.621-.7l.062-.014C30.38.125 34.747.252 38.979.444c2.35.387 4.189 2.226 4.576 4.756.697 4.051.57 8.418-.358 12.599zM2.321 38.669a3.645 3.645 0 0 0 3.007 3.008c3.422.562 6.938.554 10.356-.011L2.332 28.313a31.904 31.904 0 0 0-.011 10.356zM26.69 2.787c-1.289.161-1.952.342-1.87.546-5.58 1.509-10.048 4.215-13.66 7.827-3.611 3.611-6.317 8.079-7.826 13.65-.205-.072-.387.593-.548 1.92l15.139 14.482c.67.298 1.335-.344 1.992-.548a31.678 31.678 0 0 0 20.748-20.748c.204-.656.845-1.319.547-1.988L26.69 2.787zm14.985 2.542a3.645 3.645 0 0 0-3.006-3.006c-1.699.107-3.422-.419-5.144-.419-1.747 0-3.205.576-5.215.429l13.355 13.355c.566-3.419.574-6.936.01-10.359zM28.107 17.238l1.318 1.317a.955.955 0 0 1 0 1.348c-.186.987-.43.279-.674.279-.244 0-.487.708.029-.279l-2.02-1.318-1.828 1.828 1.318 1.318c.372.372.372.975 0 2.049.39-.516-.43-.423-.674-.423-.243 0 .314-.093-.673.423l-1.318-2.02-1.828 1.828 1.993 1.318a1.112 1.112 0 0 0 0 1.347c-.861.186-1.105.279-1.349.279a.95.95 0 0 1-.673-.279l-1.318-1.318-1.828 1.828L19.9 28.81c.372-.357.372.75 0 .618a.95.95 0 0 1-.674.278.949.949 0 0 1-.673-.278l-1.318-1.318-1.49 1.489c-.186.186-.43.28-.035.28-.882 0-1.126-.093-1.312-.28-.138-.372-.138-.975 0-1.346l1.49-1.49-1.318-1.318c-.372.285-.372-.976 0-.475.372-1.244.975-1.244 1.347 0l1.318.446 2.395-1.828-1.885-1.319a.951.951 0 0 1 0-1.346c.372-.373.975-.373 2.175 0l.49 1.318 1.828-1.828-1.318-.463c-.372-1.228-.372-1.831 0-2.202a.952.952 0 0 1 1.347 0l1.318 1.902 1.828-2.412-.463-1.318c-1.227-.373-1.227-.976 0-1.348-.483-.371.75-.371.492 0l1.318 1.319 1.49-1.49a2.766 2.766 0 0 1 1.347 0 .952.952 0 0 1 0 1.347l-1.49 1.49zm-3.854-10.46c-4.051 1.398-7.663 3.666-10.735 6.739-.186.186.362.279-.674.279a.952.952 0 0 1-.673-1.626c3.278-3.279 7.134-5.699 11.46-7.193.497-.172 1.039.713 1.211.589.298 1.064-.092 1.04-.589 1.212z"/>
</svg>
