<svg xmlns="http://www.w3.org/2000/svg" width="44" height="33">
    <path fill-rule="evenodd" fill="#FFF" d="M42.526 32.999H1.472C.66 32.999 0 32.36 0 31.574v-1.471c0-.785.66-1.424 1.472-1.424h2.013c-.282-.442-.085-.961-.085-1.517v.038c-1.242-.486-1.88-1.294-1.88-2.244 0-.356.638-1.758 1.88-2.047V21.54c-.812-.729-1.12-1.196-1.12-1.732v-1.471c0-.921.664-2.233 3.828-2.507 2.224-1.464 5.168-1.859 8.289-1.859 3.12 0 6.064.395 8.289 1.859 3.164.274 3.827 1.586 3.827 2.507v1.471c0 .536-.307 1.003-.76 1.732v1.369c.883.289 1.521 1.691 1.521 2.047 0 .95-.638 1.758-1.521 2.244v-.038c0 .556-.163 1.075-.445 1.517h3.425l-.59-2.853a.67.67 0 0 1 .148-.572c.135.686.337-.054.551-.054H30.6l-.948-5.339a.67.67 0 0 1 .187-.521.725.725 0 0 1 .523-.221h.106l-1.55-5.188a.667.667 0 0 1 .06-.524c.712-.161.245-.279.426.363l2.191-1.305a.716.716 0 0 1 .883.47l.072.242-.099-1.376a.674.674 0 0 1 .173-.5c.124-.138.3.479.488.349l2.275-.738a.704.704 0 0 1 .761.639l.06.834a.744.744 0 0 1 .404-.042l2.243.402c.555.033.35.136.458.575.105-.14.146.043.114.221a.726.726 0 0 1 .542.007l2.701.866c-.429.072-.292.208-.222.377.071.17.069.36-.006.528l-1.747 3.955a.67.67 0 0 1 .261.587l-.652 8.769c-.017-.351-.068-.145-.146.049h2.368c.813 0 1.473.639 1.473 1.424v1.471c0 .786-.66 1.425-1.473 1.425zM25.88 18.337c0-.757-2.329-1.521-3.645-1.946-1.256-.404-2.767-.698-4.419-.869l1.646 1.592c.279.27.279.706 0 1.786-.139-.676-.321-.608-.504-.608-.182 0-.365-.068-.504.608l-2.808-3.527a34.307 34.307 0 0 0-1.249-.023c-.186 0-.147.002-.556.004l2.58 2.496a.673.673 0 0 1 0 .975c-.139.135-.321.445-.504.445-.182 0-.365-.311-.504-.445l-3.5-3.385c-.553.04-1.095.094-1.619.16l1.566 1.514c.278.27.278.706 0 1.786-.139-.676-.322-.608-.504-.608-.183 0-.365-.068-.504.608l-2.281-3.017a.014.014 0 0 0-.004-.003c-.721.35-1.396.314-2.009.511-1.316.425-2.852 1.189-2.852 1.946v1.471c0 .026.021.046.047.046H25.4c.27 0 .48-.02.48-.046v-1.471zM4.466 21.233v1.563h2.888l-1.615-1.563H4.466zm3.289 0 1.615 1.563h2.546L10.3 21.233H7.755zm4.561 0 1.616 1.563h2.545l-1.615-1.563h-2.546zm4.562 0 1.615 1.563h2.897l-1.967-1.563h-2.545zm4.561 0 2.111 1.563h.778v-1.563h-2.889zm4.409 3.723c0-.431-.362-.781-.448-.781H3.753c-.445 0-.808.35-.808.781 0 .431.363.781.808.781H25.4c.086 0 .448-.35.448-.781zm-21.382 2.16v.046c0 .836.703 1.517 1.874 1.517h16.42c.864 0 1.568-.681 1.568-1.517v-.046H4.466zm25.245-.736.468 2.262a.047.047 0 0 0 .046.037H34.3a.047.047 0 0 0 .047-.037l.468-2.262h-5.104zm1.595-12.399-.821.229 1.467 4.909h.89l-1.536-5.138zm3.47-1.646-.854.058.487 6.726h.182l1.219-2.559-1.034-4.225zm-3.644 8.163.358 4.702h4.194c.214 0 .416.74.551.054.136.16.19.37.148.572l-.59 2.853h2.977c-.273 0 .081-.317.113-.722l.593-7.459h-8.344zm6.408-6.673-1.035 2.868c-.003.023-.008.046-.013.069l-.082 2.357h.501l.984-5.144-.355-.15zm3.311 1.586-.201.449-2.191 2.863a.749.749 0 0 1-.036.069l-.062.327h.853l1.637-3.708zm1.723 14.692c0 .677-.021.477-.048.477H1.472c-.026 0-.047.2-.047-.477v1.471c0 .026.021.046.047.046h41.054c.027 0 .048-.02.048-.046v-1.471zM16.771 8.734c-.394 0-.191-.309-.191-.294 0-.562-.46-.714-.359-.834.476-.296 1.264-.906 1.264-3.238 0-.696-.136-1.168.325-1.936-.888.398.04-.756-.365-.909a.723.723 0 0 1 .94.352 5.96 5.96 0 0 1 .526 2.493c0 2.191-1.067 3.483-1.581 4.105a.723.723 0 0 1-.559.261zm-.901 2.986c0 .38-.319.689-.713.689a.702.702 0 0 1-.713-.689c0-.29-.253-.983-.603-1.407-.409-.493-.917-1.107-.917-1.863 0-1.566.508-2.18.916-2.674.351-.424.604-.316.604-1.408 0-.678-.253-.984-.604-1.409-.408-.494-.916-1.109-.916-2.27A.7.7 0 0 1 13.636 0c.664 0 .713.308.713.689 0 .678.254.984.604 2.291.409-.388.917.227.917 1.388 0 1.161-.508 1.776-.917 2.27-.35.982-.604.73-.604 1.812 0 .272.254.83.604 1.001.409.494.917 1.108.917 2.269zM12.579 4.8c-.476.575-1.271 1.537-1.271 3.65 0 .287.134.933.399 1.517a.682.682 0 0 1-.367.908c-.093.04-.191.058.2.058-.76 0-1.022-.154-1.139-.413.169-.759-.518-1.592-.518-2.07 0-2.537 1.011-3.818 1.539-4.458a.726.726 0 0 1 1.192-.009.676.676 0 0 1-.035.817z"/>
</svg>
