<svg xmlns="http://www.w3.org/2000/svg" width="44" height="31">
    <path fill-rule="evenodd" fill="#FFF" d="M43.89 26.673c-.04 1.231-.601 2.877-1.523 3.176-.922.794-2.125 1.551-2.977 1.072l-.752-.04c-2.365-.238-4.41-1.628-5.453-3.771l-.955-2.422c-1.41-2.46-3.936-4.048-6.702-4.048h-6.415a7.16 7.16 0 0 0-6.375 3.85l-1.484 2.779c-1.042 2.024-3.087 3.374-5.372 3.612l-.922.08C4.8 31 4.679 31 4.519 31c-1.043 0-2.085-.357-2.887-1.072a4.372 4.372 0 0 1-1.523-3.136l.171-3.016C.131 18.456.429 13.177 1.632 8.96l.481-2.849v.209C3.316 2.46 6.684.38 10.493.38h1.447c-.044 0 .798-.223 1.64-.024l4.33 1.27a9.19 9.19 0 0 0 2.606.357h2.927c.922 0 1.804-.119 3.047-.357l3.889-1.27C31.261.118 32.63.1 32.865.1h.641c3.809.3 7.177 2.28 8.38 5.892v.728l.481 1.85c1.243 4.647 1.764 9.926 1.603 15.126l-.08 2.977zm-3.007-18.22-.481-1.945c-1.002-2.897-3.769-4.882-6.776-4.882h-.721c-.682 0-1.363.079-2.045.278l-4.33 1.27c-.962.278-2.005.437-3.087.437h-2.927c-1.083 0-2.125-.159-3.087-.437l-3.439-1.27c-1.573-.199-2.254-.278-2.05-.278h-1.447c-3.128 0-5.854 1.945-6.856 4.843l-.481 1.945a59.093 59.093 0 0 0-1.524 15.282l.08 3.017c.04.794 1.018 1.508.963 2.024.601.516 1.705.755 2.125.675l.922-.079c1.724-.159 4.178-1.231 4.089-2.739l1.484-2.779c1.523-2.898 4.53-3.895 7.818-3.895h6.415c3.367 0 6.702 1.45 7.938 4.22l1.163 2.295c.802 2.195 2.365 2.739 4.169 2.898l.401.04c.901.079 1.524-.159 2.125-.675.602-.516.922-1.231.963-2.025l.08-2.977c.16-5.121.233-10.281-1.484-15.243zm-3.728 4.407c-.321.317-.722.476-.835.476-.689 0-1.09-.159-1.411-.476a1.572 1.572 0 0 1 0-2.263l.281-.278a1.561 1.561 0 0 1 2.245 0c1.335.635 1.335 1.628 0 2.263l-.28.278zm-4.371 4.81c-.32-.285-.154-.127-1.122-.127-.401 0-.802-.158-1.123.127-.641-1.238-.641-2.23 0-2.866l.281-.277c.601-.635 1.644-.635 2.83 0 .057.635.057 1.627 0 2.262l-.866.881zm0-9.058c-.32.318-.154 1.268-1.122 1.268-.401 0-.802-.95-1.123-1.228-.641-.482-.641-1.412 0-2.263l.241.331c.641-1.283 1.644-1.283 2.87 0 .057-.013.057.979 0 1.614l-.866.278zm-4.129 4.208a1.594 1.594 0 0 1-1.123.476c-.401 0-.802-.159-1.122-.436a1.57 1.57 0 0 1 0-2.263l.28-.278a1.56 1.56 0 0 1 2.245-.04 1.57 1.57 0 0 1 0 2.263l-.28.278zm-11.547-.119H13.59v3.969c0 .437-.892.794-1.333.794a.8.8 0 0 1-.802-.794v-3.969H7.486c-.036 0-.802-.358-.802-.794 0-.437.766-.794.802-.794h3.969V7.144a.8.8 0 0 1 .802-.794c.441 0 1.333.357 1.333.794v3.969h3.518a.8.8 0 0 1 .802.794.8.8 0 0 1-.802.794z"/>
</svg>
