<svg xmlns="http://www.w3.org/2000/svg" width="44" height="36">
    <path fill-rule="evenodd" fill="#FFF" d="M38.63 35.999H5.369C2.406 35.999 0 33.573 0 30.586V11.15c0-2.968 2.289-5.285 5.109-5.285h7.139l.17-.752C13.119 2.99 15.75 0 18.812 0h6.366c3.071 0 5.702 2.99 6.394 5.113l.17.752h7.148c2.82 0 5.109 2.308 5.109 5.285v19.436c0 2.987-2.406 5.413-5.369 5.413zm3.16-24.849c0-1.755-1.302-2.33-2.909-2.33h-8.019c-.512 0-.952-1.1-1.068-1.598l-.369-1.611c-.466-2-2.208-3.394-4.247-3.394h-6.366c-2.039 0-3.502 1.394-4.248 3.394l-.368 1.611c.594.507-.557 1.598-1.068 1.598H5.109c-1.608 0-2.91.575-2.91 2.33v19.436c0 1.765 1.419 3.195 3.17 3.195h33.252c1.751 0 3.169-1.43 3.169-3.195V11.15zM21.999 30.305c-5.091 0-9.24-4.173-9.24-9.314 0-5.142 4.149-9.315 9.24-9.315 5.911 0 9.24 4.182 9.24 9.315 0 5.132-3.329 9.314-9.24 9.314zm0-16.411c-3.879 0-7.04 3.906-7.04 7.097 0 3.91 3.161 7.889 7.04 7.889 3.88 0 7.391-3.979 7.391-7.889 0-3.191-3.511-7.097-7.391-7.097zm-14.556.407a1.478 1.478 0 0 1-1.472-1.484c0-.82.659-1.485 1.472-1.485.814 0 1.473.665 1.473 1.485 0 .819-.659 1.484-1.473 1.484z"/>
</svg>
