<svg xmlns="http://www.w3.org/2000/svg" width="40" height="44">
    <path fill-rule="evenodd" fill="#FFF" d="M39.999 9.69V1.245c0-.397-.195-.775-.511-1.005-.325.66-.743.4-1.124.31L13.8 8.49c-1.313-.275-1.666.205-1.666.748v24.628c-1.329-.913-3.029-1.411-4.813-1.411-1.886 0-3.679.725-5.045 1.865C.808 35.129 0 36.613 0 38.227c0 1.614.808 3.098 2.276 4.195 1.366 1.014 3.15 1.577 5.045 1.577 1.896 0 3.779-.563 5.045-1.577 1.468-1.097 2.277-2.581 2.277-4.195v-19.62l22.848-7.211v14.439c-1.329-.913-3.029-1.411-4.813-1.411-1.886 0-3.68.563-5.046 1.676-1.468 1.88-2.276 2.483-2.276 4.096 0 1.614.808 3.098 2.276 4.195 1.366 1.015 3.15 1.577 5.046 1.577 1.895 0 3.679-.562 5.045-1.577 1.468-1.097 2.276-2.581 2.276-4.195V9.69zM7.321 41.509c-2.611 0-4.813-.809-4.813-3.282 0-1.779 2.202-3.282 4.813-3.282 2.611 0 4.813 1.503 4.813 3.282 0 1.933-2.202 3.282-4.813 3.282zm7.322-25.521v-5.846l22.848-7.201v5.846l-22.848 7.201zm18.044 17.491c-1.927 0-4.813-1.503-4.813-3.283 0-1.779 2.886-3.282 4.813-3.282 2.611 0 4.813 1.503 4.813 3.282-.009 1.78-2.211 3.283-4.813 3.283z"/>
</svg>
