<svg xmlns="http://www.w3.org/2000/svg" width="44" height="34">
    <path fill-rule="evenodd" fill="#FFF" d="M43.313 33.999H.685A.683.683 0 0 1 0 33.318c0-.376.307-.681.685-.681h1.058a39.978 39.978 0 0 0 3.642-6.402h-.252a.683.683 0 0 1-.686-.681c0-.376.307-.68.686-.68h.843c.774-.974 1.449-3.564 2.01-5.902h-.047a.683.683 0 0 1-.686-.681c0-.376.307-.682.686-.682h.399l.017-.068C9.74 11.839 10.42 6.557 10.52 3.13c.01-.367-.173-.665.193-.678V.68c0-.376.487-.68.686-.68.379 0 1.451.304 1.451.68v1.772c-.398.013-.104.311-.103.678.009 3.427.833 8.709 1.697 14.411l.017.069h.399c.379 0 .686.305.686.681a.683.683 0 0 1-.686.681h-.048a50.69 50.69 0 0 0 1.127 3.605l3.966-5.248c.435-.171.333.241.549.241.216 0 .419-.412.746-.241l2.051 2.977 4.298-5.688c.13-.172.333-.272 1.431-.272-.666 0-.462.1-.333.272l4.72 6.247v-2.303a.683.683 0 0 1-.661-.68V12.44c0-.771.424-1.077.686-1.077h.029l.97-1.678V7.43l.001-.023.002-.03a.386.386 0 0 1 .006-.049l.003-.024a.685.685 0 0 1 .016-.065l.001-.006.001-.003.002-.005 1.473-4.851c.088.496.355-.484.657-.484.303 0 .57.98.657.484l1.474 4.851.002.005v.003l.002.006a.683.683 0 0 1 .028.191v2.255l.969 1.678h.03c1.225 0 .686.306.686 1.077v5.442a.683.683 0 0 1-.662.68v10.737l2.523 3.338h1.051c.379 0 .686.305.686.681a.683.683 0 0 1-.686.681zm-27.138-1.362c-.02-.193-.053-.383.615.053l-1.14-.053h.525zm-2.241 0 1.534-2.029c-.562-.887-.868-1.318-1.908-1.946l-3.03 3.975h3.404zm-5.596 0 3.221-4.264a4.218 4.218 0 0 0-.16-.004c-2.478 0-4.524 1.873-4.776 4.268h1.715zm3.061-27.895c-.094 3.381-.483 7.962-1.651 12.867H13.5c-1.618-4.905-2.007-9.486-2.101-12.867zm1.995 14.23h-3.99c-.543 2.248-1.195 4.228-1.946 5.902h1.174l1.269-4.672a.686.686 0 0 1 .662-.504h1.672c.31 0 .582.207.663.504l1.268 4.672h1.175c-.752-1.674-1.404-3.644-1.947-5.902zm-2.854 5.902h2.205L11.71 21.6h.18l-1.35 3.274zm5.374 1.361h-9.03a42.103 42.103 0 0 1-3.481 6.402h1.842c.257-3.147 2.919-4.937 6.154-4.937s5.898 1.79 6.154 4.937h1.843c-.586-1.973-2.481-4.122-3.482-6.402zm4.54-7.362-3.947 6.077c.104-.593.209-.334.316-.076h.842c.775 0 .686.304.686.68 0 .377.089.681-.686.681h-.252c.17.373.344.742.522 1.106l4.459-5.9-1.94-2.568zm-1.824 9.819c.743 2.078 1.553 2.703 2.92 3.945h1.29l3.736-14.462-7.946 10.517zM36.553 4.929 36.1 6.748h1.006l-.553-1.819zm.79 3.181h-1.58v1.075h1.58V8.11zm.289 2.438h-2.157l-.175.815h2.803l-.471-.815zm1.658 2.177h-4.51v4.476h4.51v-4.476zm-4.551 5.838v4.118l3.628 4.801v-8.919h-3.628zm-6.331-1.992-4.152 16.066h16.29L28.408 16.571zm8.145-3.637c1.128 0 2.045.91 2.045 2.029 0 1.857-.917 2.03-2.045 2.03-1.127 0-2.045-.173-2.045-2.03a2.04 2.04 0 0 1 2.045-2.029zm0 2.697c.371 0 .673-.3.673-.668a.672.672 0 0 0-.673-.668.67.67 0 0 0-.672.668.67.67 0 0 0 .672.668z"/>
</svg>
