<svg xmlns="http://www.w3.org/2000/svg" width="44" height="38">
    <path fill-rule="evenodd" fill="#FFF" d="M40.491 15.563h1.289a2.226 2.226 0 0 1 2.219 2.229c0 1.428-.599 2.428-2.219 2.428h-1.152c-.339.701-.038 1.638-.68 2.594-.053.454-.081.912-.081 1.367 0 .454.028 1.769.081 1.365.642.957.34 1.894.68 2.793h1.152a2.2 2.2 0 0 1 1.568.652c.42.422.651.982.651 1.578 0 1.229-.599 2.229-2.219 2.229H16.839v4.366a.838.838 0 0 1-.405.718c-.132.078-.279.118.266.118-.829 0-.964-.033-1.088-.1l-3.316-1.793L8.979 37.9c-.258.49-.57.42-.822-.018a.838.838 0 0 1-.405-.718v-4.405a8.505 8.505 0 0 1-5.239-2.484A8.587 8.587 0 0 1 0 24.181a8.622 8.622 0 0 1 3.508-6.946H2.219C.996 17.235 0 16.235 0 15.5c0-1.724.996-2.724 2.219-2.724h1.153a11.84 11.84 0 0 0 0-8.318H2.219C.996 4.458 0 3.458 0 2.229 0 .999.996 0 2.219 0H35.42c4.731 0 8.579 3.865 8.579 8.617a8.622 8.622 0 0 1-3.508 6.946zM16.839 31.126H41.78c1.08 0 .555-.25.555-.557a.552.552 0 0 0-.163-.394c.508.525-.244-.065-.392-.065H16.839v1.016zm-7.422 4.638 2.484-1.343c.349-.067.259-.1.395-.1.135 0 .271.033.394.1l2.485 1.343v-9.283H9.417v9.283zm-.833-10.955H16.7v-.001h2.859c.621 0 .832.375.832.836 0 .462-.211.836-.832.836h-2.72v1.859h22.023a13.352 13.352 0 0 1-.46-1.859h-8.535c-.46 0-.527-.374-.527-.836 0-.461.067-.836.527-.836h8.352a13.153 13.153 0 0 1 0-1.255h-4.116a.834.834 0 0 1-.833-.836c0-.462.373-.836.833-.836h4.299c.109-.63.262-1.251.46-1.661H8.836c-1.521 0-2.916.636-3.64 1.979a4.183 4.183 0 0 0 0 3.963c.354.659 1.564 1.208 1.521 1.591.683.194.673 1.177 1.035.439v-2.547c0-.462.373-.836.832-.836zm-6.92-.628c0 2.169.72 3.598 2.026 5.749 1.108.276 2.528.963 4.062 1.83v-1.854c.118-.127-1.306-.368-1.887-.716a5.81 5.81 0 0 1-2.133-2.231c-.458-.849-.422-1.81-.422-2.778 0-.969-.036-1.93.423-2.779a5.793 5.793 0 0 1 5.103-3.052H41.78c1.08 0 .555-.25.555-.558a.556.556 0 0 0-.164-.395c.509-.104-.243-.162-.391-.162H8.575c-3.811.002-6.911 3.117-6.911 6.946zM35.42 1.671H2.219a.557.557 0 0 0 0 1.115h32.945a5.795 5.795 0 0 1 5.103 3.052 5.835 5.835 0 0 1 0 5.558 5.795 5.795 0 0 1-5.103 3.052H2.219c-.306 0-.555.25-.555 1.052 0-.188.249.063.555.063h33.205c3.811-.003 6.911-3.117 6.911-6.946 0-3.83-3.102-6.946-6.915-6.946zM9.896 7.99H5.775c.02.418.02.837 0 1.255h8.358c.459 0 .832.374.832 1.565 0-.267-.373.107-.832.107H5.592c-.108.628-.258 1.25-.456 1.859h30.028c1.52 0 3.626-.834 3.639-2.177a4.16 4.16 0 0 0 0-3.964c-.013-1.342-2.119-2.177-3.639-2.177H5.136c.198 1.222.348 1.232.456 1.86h4.304c.46 0 .833.374.833.836a.835.835 0 0 1-.833.836zm7.244 1.255c.333 0 .706.374.706 1.565 0-.268-.373.107-.706.107-.586 0-.959-.375-.959-.107 0-1.191.373-1.565.959-1.565z"/>
</svg>
