<svg xmlns="http://www.w3.org/2000/svg" width="40" height="44">
    <path fill-rule="evenodd" fill="#FFF" d="M39.892 1.348c-.188.345-4.655 8.488-8.762 12.645-2.741 2.774-6.948 3.301-9.749 3.301-.756 0-1.409-.038-1.904-.081v9.697c1.13-.716 2.183-.184 2.944.666a.449.449 0 0 0 .258.142h.002a.46.46 0 0 0 .157 0 7.678 7.678 0 0 1 1.316-.114c1.778 0 3.517.623 5.346 1.754.706.949 2.22 2.222 2.039 3.639.093-.005.187-.007.28-.007 3.028 0 5.485 2.516 5.439 5.59-.046 3.02-2.536 5.419-5.521 5.419H5.519C2.534 43.999.44 41.6.1 38.58c.37-3.074 2.309-5.59 5.336-5.59.094 0 .188.002.281.007.466-1.417 1.783-2.69 2.489-3.639a7.741 7.741 0 0 1 4.896-1.755c.438 0 .88.039 1.316.115a.46.46 0 0 0 .157 0h.002a.449.449 0 0 0 .258-.142c.761-.85 1.814-1.382 2.944-.666v-6.23c-.331.27-.449-.564-1.22-.564-1.978 0-4.964-.374-6.918-2.353-2.859-2.892-5.956-8.539-6.086-8.778a.865.865 0 0 1-.001-.829.849.849 0 0 1 .691-.445c.099-.006 2.44-.148 5.167.061 3.791.868 6.379 1.112 7.69 2.439.231.234.439.482.627.741.471-2.487 1.106-5.326 3.12-7.364C22.684 1.73 26.356.578 31.761.162 35.69.138 39.6.66 39.201.74c.291.19.552-.48.692-.221.437.258.437 1.381-.001.829zM15.901 11.427c-1.456-1.475-5.316-1.942-8.357-2.035l6.366 3.199c-.412.235-.27.76-.502 1.172-.157.647-.444.434-.739.434-.142 0-.287-.036-.419.643l-5.627-4.001c1.144 1.842 2.74 4.681 4.218 5.709 1.941 1.964 5.414 1.917 6.84 1.803.111-1.445.154-4.967-1.78-6.924zM18.18 27.79a2.81 2.81 0 0 0-2.297 1.206c-.561.802-2.011.326-2.781.326-2.823 0-5.319 2.021-5.935 4.805.493.456-.543.746-.995.655a3.72 3.72 0 0 0-.736-.074c-2.062 0-3.74 1.699-3.74 3.786 0 2.088 1.678 3.786 3.74 3.786h26.383c2.063 0 3.741-1.698 3.741-3.786 0-2.087-1.678-3.786-3.741-3.786-.246 0-.493.025.011.074-1.199.091-1.64-.199-.94-.655-1.418-2.784-3.914-4.805-6.736-4.805-.757 0-2.215.482-2.781-.326.023.304.029.384-.001 0-.527-.755-1.386-1.206-1.612-1.206h-1.58zM30.963 4.581l4.97-2.867c-4.611.028-11.441.617-13.443 3.089-3.521 3.118-3.285 8.773-3.106 10.672 1.876.179 7.472.413 10.545-2.697 2.534-2.565 5.297-6.869 6.957-9.636L31.803 6.74c-.132-.59-.277-.553-.419-.553.506 0-.582.123-.739-.434a.864.864 0 0 1 .318-1.172zm-2.177 3.233L26.607 9.71c-.133-.562-.277-.526-.42-.526-.295 0-.582.096-.738-.434a.865.865 0 0 1 .317-1.172l2.179-1.257c.408.539.926-.091 1.158.321.233.898.091.937-.317 1.172zm-6.331 31.595c0 .474.285.859-.849.859h-.838a.854.854 0 0 1-.849-.859c0-.475.38-.86.849-.86h.838c1.134 0 .849.385.849.86zm-9.457-6.249c-1.25 0-2.268 1.3-2.268 2.152 0 .475-.38.859-.849.859s-.561-.384-.561-.859c0-1.332 1.491-4.014 3.678-4.014.469 0 .849.384.849.859s-.38 1.003-.849 1.003zm11.864 5.389h6.979c.469 0 .849.385.849.86 0 .474-.38.859-.849.859h-6.979c-.469 0-.732-.385-.732-.859 0-.475.263-.86.732-.86z"/>
</svg>
